<svg xmlns="http://www.w3.org/2000/svg" viewBox="0 0 220.43 219.48"><defs><style>.cls-1{fill:#f58c8a;}.cls-2{fill:#0c0c0c;}</style></defs><g id="Layer_2" data-name="Layer 2"><g id="Layer_1-2" data-name="Layer 1"><g id="Group_516" data-name="Group 516"><g id="Group_512" data-name="Group 512"><path id="Path_644" data-name="Path 644" class="cls-1" d="M195.48,19.85H45.76a25,25,0,0,0-25,24.95V158.23a25,25,0,0,0,25,25h43.1l24.5,32.67a9.07,9.07,0,0,0,12.7,1.81,9.18,9.18,0,0,0,1.82-1.81l24.5-32.67h43.1a25,25,0,0,0,25-25V44.8A25,25,0,0,0,195.48,19.85Z"/></g><g id="Group_513" data-name="Group 513"><path id="Path_645" data-name="Path 645" class="cls-2" d="M105.17,210.3a14.45,14.45,0,0,1-11.55-5.76L70.72,174H30.3A30.37,30.37,0,0,1,0,143.72V30.3A30.37,30.37,0,0,1,30.28,0H180a30.38,30.38,0,0,1,30.29,30.28V143.72A30.39,30.39,0,0,1,180,174H139.58l-22.89,30.52a14.44,14.44,0,0,1-11.52,5.76ZM30.3,10.68A19.67,19.67,0,0,0,10.68,30.3V143.72A19.66,19.66,0,0,0,30.3,163.33H76.06l26.1,34.81a3.74,3.74,0,0,0,5.23.74l26.84-35.55H180a19.67,19.67,0,0,0,19.61-19.62V30.3A19.68,19.68,0,0,0,180,10.68Z"/></g><g id="Group_514" data-name="Group 514"><path id="Path_646" data-name="Path 646" d="M105.93,67H88.55a8.7,8.7,0,0,0-8.69,8.69h0a8.69,8.69,0,0,0,8.69,8.69h8.69v43.45a8.69,8.69,0,0,0,8.69,8.69h0a8.7,8.7,0,0,0,8.7-8.69V75.7A8.7,8.7,0,0,0,105.94,67Z"/></g><g id="Group_515" data-name="Group 515"><circle id="Ellipse_155" data-name="Ellipse 155" cx="105.93" cy="49.63" r="8.69"/></g></g></g></g></svg>