<svg xmlns="http://www.w3.org/2000/svg" viewBox="0 0 276.44 262.49"><defs><style>.cls-1{fill:#28afb0;}.cls-2,.cls-5,.cls-6{fill:none;}.cls-3{fill:#2b2b2b;}.cls-4{fill:#f58c8a;}.cls-5,.cls-6{stroke:#2b2b2b;stroke-miterlimit:10;}.cls-5{stroke-width:4.37px;}.cls-6{stroke-width:3.86px;}</style></defs><g id="Layer_2" data-name="Layer 2"><g id="Layer_1-2" data-name="Layer 1"><path id="Union_7" data-name="Union 7" class="cls-1" d="M50.32,171,155,31.94,267.68,8.71l8.76,114.76-104.69,139Z"/><g id="Subtraction_1" data-name="Subtraction 1"><path class="cls-2" d="M160.11,253.67h0L38.74,162.17,143.4,23.2,256,0l8.75,114.71-104.66,139ZM224.29,28.29a12.38,12.38,0,1,0,12.37,12.37,12.39,12.39,0,0,0-12.37-12.37Z"/><path class="cls-3" d="M158.75,244l98.92-131.34-8-104.26L147.36,29.46,48.44,160.8,158.75,244M224.29,21.36A19.3,19.3,0,1,1,205,40.66a19.32,19.32,0,0,1,19.29-19.3M160.11,253.67h0L38.74,162.17,143.4,23.2,256,0l8.75,114.71-104.67,139ZM224.29,28.29a12.38,12.38,0,1,0,12.37,12.37A12.39,12.39,0,0,0,224.29,28.29Z"/></g><polygon class="cls-4" points="130.24 117.41 126.81 92.22 50.94 31.55 29.01 58.97 104.88 119.65 130.24 117.41"/><rect class="cls-4" x="8.73" y="8.02" width="27.35" height="35.27" transform="translate(21.26 -8.39) rotate(39.2)"/><polygon class="cls-5" points="129.43 117.01 126 91.82 50.13 31.15 28.2 58.57 104.07 119.24 129.43 117.01"/><rect class="cls-6" x="11" y="14.74" width="25.41" height="35.27" transform="translate(25.8 -7.7) rotate(39.2)"/></g></g></svg>