<svg xmlns="http://www.w3.org/2000/svg" viewBox="0 0 188.64 250.7"><defs><style>.cls-1{fill:#28afb0;}</style></defs><g id="Layer_2" data-name="Layer 2"><g id="Layer_1-2" data-name="Layer 1"><g id="Group_534" data-name="Group 534"><g id="Group_522" data-name="Group 522"><path id="Path_650" data-name="Path 650" class="cls-1" d="M22.25,237.16H182.36a6.41,6.41,0,0,0,6.28-6.51V73.84a6.63,6.63,0,0,0-1.84-4.6L155.17,36.48,121.76,1.9A6.14,6.14,0,0,0,117.32,0H22.25A6.38,6.38,0,0,0,16,6.49h0V230.65a6.4,6.4,0,0,0,6.27,6.51Z"/></g><g id="Group_523" data-name="Group 523"><path id="Path_651" data-name="Path 651" d="M10.81,250.7H169.29a11,11,0,0,0,10.8-11.11v-163a11,11,0,0,0-10.8-11.12H122.47V17.25A11,11,0,0,0,111.66,6.14H10.81A11,11,0,0,0,0,17.25V239.59A11,11,0,0,0,10.81,250.7ZM169.29,72.84a3.65,3.65,0,0,1,3.6,3.7V239.59a3.65,3.65,0,0,1-3.6,3.7H10.81a3.65,3.65,0,0,1-3.6-3.7V17.25a3.65,3.65,0,0,1,3.6-3.7H111.66a3.67,3.67,0,0,1,3.6,3.7V72.84Z"/></g><g id="Group_524" data-name="Group 524"><path id="Path_652" data-name="Path 652" d="M111.66,84h57.63A7.21,7.21,0,0,0,176,79.38a7.57,7.57,0,0,0-1.57-8.07L116.75,12a7,7,0,0,0-7.85-1.6,7.43,7.43,0,0,0-4.45,6.85V76.55a7.31,7.31,0,0,0,7.21,7.4Z"/></g><g id="Group_531" data-name="Group 531"><g id="Group_526" data-name="Group 526"><g id="Group_525" data-name="Group 525"><path id="Path_653" data-name="Path 653" d="M45,113.6h90a7.41,7.41,0,0,0,0-14.82H45a7.41,7.41,0,0,0,0,14.82Z"/></g></g><g id="Group_528" data-name="Group 528"><g id="Group_527" data-name="Group 527"><path id="Path_654" data-name="Path 654" d="M45,158.07h90a7.42,7.42,0,0,0,0-14.83H45a7.42,7.42,0,0,0,0,14.83Z"/></g></g><g id="Group_530" data-name="Group 530"><g id="Group_529" data-name="Group 529"><path id="Path_655" data-name="Path 655" d="M45,202.53h90a7.41,7.41,0,0,0,0-14.82H45a7.41,7.41,0,0,0,0,14.82Z"/></g></g></g><g id="Group_532" data-name="Group 532"><path id="Path_656" data-name="Path 656" d="M111.66,87.66h57.63a10.78,10.78,0,0,0,10-6.86,11.32,11.32,0,0,0-2.34-12.12L119.3,9.39A10.55,10.55,0,0,0,107.52,7a11.11,11.11,0,0,0-6.67,10.27V76.54A11,11,0,0,0,111.66,87.66Zm0-74.11a3.51,3.51,0,0,1,2.54,1.08l57.63,59.29a3.76,3.76,0,0,1,.78,4,3.59,3.59,0,0,1-3.33,2.29H111.66a3.65,3.65,0,0,1-3.6-3.71V17.25a3.67,3.67,0,0,1,2.22-3.42,3.49,3.49,0,0,1,1.39-.28Z"/></g></g></g></g></svg>