<svg xmlns="http://www.w3.org/2000/svg" viewBox="0 0 472.07 119.84"><defs><style>.cls-1{fill:#0b8082;}</style></defs><g id="Layer_2" data-name="Layer 2"><g id="Layer_1-2" data-name="Layer 1"><path class="cls-1" d="M0,60.17C0,40,12.73,27.44,26.92,27.44c7.24,0,12,2.72,17.44,7.21L43.92,24V0H54.45V91.2h-8.7l-.89-7.34h-.35C39.67,88.7,33,92.74,25.63,92.74,10.08,92.74,0,80.91,0,60.17ZM43.92,75.39V42.77C38.61,38,33.82,36.3,28.74,36.3c-9.95,0-17.86,9.6-17.86,23.78,0,14.92,6.17,23.8,17.08,23.8C33.72,83.88,38.7,81.08,43.92,75.39Z"/><path class="cls-1" d="M70.49,9.38c0-4.13,3.18-6.8,7.27-6.8S85,5.25,85,9.38c0,4-3.18,6.8-7.28,6.8S70.49,13.36,70.49,9.38ZM72.42,29H83V91.2H72.42Z"/><path class="cls-1" d="M96.12,103.16c0-5.33,3.4-10.35,9.12-14.07v-.51a11.53,11.53,0,0,1-5.56-10.2c0-5.17,3.62-9.29,6.84-11.55v-.51a21.68,21.68,0,0,1-8.06-16.71c0-13.61,10.73-22.17,23.35-22.17A25.09,25.09,0,0,1,130.6,29h21.71v8.1H139.53a18,18,0,0,1,5.07,12.81c0,13.32-10.07,21.57-22.79,21.57a22.12,22.12,0,0,1-9.27-2.11c-2.25,1.88-4,4-4,7.36,0,4,2.56,6.75,10.9,6.75h12.11c14.47,0,21.74,4.54,21.74,14.86,0,11.56-12.23,21.52-31.46,21.52C106.63,119.84,96.12,113.87,96.12,103.16ZM143,99.9c0-5.76-4.37-7.73-12.54-7.73H119.74a35.14,35.14,0,0,1-8.09-.93c-4.45,3.16-6.35,6.86-6.35,10.44,0,6.68,6.74,10.9,18,10.9C135.21,112.58,143,106.39,143,99.9Zm-8-50.29c0-9-5.89-14.53-13.23-14.53s-13.22,5.4-13.22,14.53,6,14.78,13.22,14.78S135,58.66,135,49.61Z"/><path class="cls-1" d="M160.36,9.38c0-4.13,3.18-6.8,7.28-6.8s7.27,2.67,7.27,6.8c0,4-3.18,6.8-7.27,6.8S160.36,13.36,160.36,9.38ZM162.29,29h10.53V91.2H162.29Z"/><path class="cls-1" d="M192.56,72V37.55H183.3v-8L193,29l1.26-17.46h8.8V29H220v8.57H203.09v34.6c0,7.6,2.45,12,9.62,12a20.7,20.7,0,0,0,7.09-1.67l2,7.94a37.36,37.36,0,0,1-11.54,2.31C197,92.74,192.56,84.35,192.56,72Z"/><path class="cls-1" d="M226.8,68.87c0-24.15,16.38-43.24,33.87-43.24a15.67,15.67,0,0,1,14,8.47H275l2.7-6.93H291L278.29,90.53H264.77l.35-8.41h-.32c-5.8,6.07-13.35,9.95-20.08,9.95C233.57,92.07,226.8,83.79,226.8,68.87Zm39.34-.07,4.69-23.13c-2.3-4.51-5.85-6.45-9-6.45-9.25,0-17.81,12.1-17.81,27.5,0,8.12,3.07,11.76,7.89,11.76C256.38,78.48,261.82,76.12,266.14,68.8Z"/><path class="cls-1" d="M292.21,77.15h16.86l10.2-50.48H304.53l2.09-10.44c8.71-1.36,14.6-3.55,20.41-7h12.34l-13.7,68h15.16l-2.68,13.38H289.47Z"/><path class="cls-1" d="M350.72,77.15h16.86l10.19-50.48H363l2.09-10.44c8.71-1.36,14.6-3.55,20.41-7h12.34l-13.71,68h15.17l-2.69,13.38H348Z"/><path class="cls-1" d="M399.13,113.13l5.09-11.94a9.6,9.6,0,0,0,4.74,1.22c4.72,0,9.51-3.82,12.52-9.8l1.63-3.26-11-62.18h16.5l3.25,29.39c.63,5.59,1.06,13,1.24,19.07h.51c2.68-5.89,5.81-13.22,8.54-19.07L456,27.17h16.07l-34.56,65.2c-8.52,14.9-16.61,23.23-29.59,23.23A21.49,21.49,0,0,1,399.13,113.13Z"/></g></g></svg>