<svg xmlns="http://www.w3.org/2000/svg" xmlns:xlink="http://www.w3.org/1999/xlink" viewBox="0 0 754.24 736.25"><defs><style>.a,.c{fill:none;}.b{fill:#262626;}.c,.e,.f{stroke:#191919;stroke-width:2px;}.c,.e,.f,.g{stroke-miterlimit:10;}.d{clip-path:url(#a);}.e{fill:#141414;}.f{fill:#f58c8a;}.g,.i{fill:#f7f7f7;}.g{stroke:#212121;stroke-width:0.25px;}.h{fill:#212121;}.j{fill:#fff;}.k{fill:#28afb0;}</style><clipPath id="a" transform="translate(0.92 119.19)"><rect class="a" x="4.42" y="3.91" width="426.89" height="361.85" rx="13.11"/></clipPath></defs><rect class="b" x="134.09" y="179.19" width="83.05" height="84.25"/><rect class="b" x="19.47" y="282.89" width="83.05" height="84.25"/><rect class="b" x="327.84" y="283.8" width="83.05" height="84.25"/><rect class="b" x="231.42" y="387.5" width="83.05" height="84.25"/><rect class="c" x="5.34" y="123.1" width="426.89" height="361.85" rx="13.11"/><g class="d"><rect class="e" x="1" y="123.1" width="435.93" height="37.04"/><rect class="c" x="475.79" y="1" width="277.44" height="389.04" rx="12.21"/></g><rect class="c" x="5.34" y="123.1" width="426.89" height="361.85" rx="13.11"/><path class="f" d="M41,22.43A5.43,5.43,0,1,1,35.55,17,5.44,5.44,0,0,1,41,22.43Z" transform="translate(0.92 119.19)"/><path class="f" d="M64.32,22.43A5.43,5.43,0,1,1,58.89,17h0A5.44,5.44,0,0,1,64.32,22.43Z" transform="translate(0.92 119.19)"/><path class="f" d="M87.66,22.43A5.44,5.44,0,1,1,82.23,17a5.44,5.44,0,0,1,5.43,5.43Z" transform="translate(0.92 119.19)"/><rect class="c" x="328.34" y="173.31" width="86.74" height="86.74"/><rect class="c" x="23.79" y="381.34" width="86.74" height="86.74"/><rect class="c" x="125.31" y="173.31" width="86.74" height="86.74"/><rect class="c" x="226.82" y="173.31" width="86.74" height="86.74"/><rect class="c" x="23.79" y="274" width="86.74" height="86.74"/><rect class="c" x="125.31" y="274" width="86.74" height="86.74"/><rect class="c" x="226.82" y="274" width="86.74" height="86.74"/><rect class="c" x="327.49" y="274" width="86.74" height="86.74"/><rect class="c" x="125.31" y="379.26" width="86.74" height="88.82"/><rect class="c" x="226.82" y="381.34" width="86.74" height="86.74"/><rect class="c" x="325.07" y="381.34" width="86.74" height="86.74"/><rect class="c" x="23.79" y="174.12" width="86.74" height="86.74"/><path class="g" d="M272.84,587.78l13.4,1-.48-29.68-12.92,3.83Z" transform="translate(0.92 119.19)"/><path class="g" d="M333.15,588.26l13.88.48V557.15l-7.66,5.26Z" transform="translate(0.92 119.19)"/><path class="h" d="M268,568.16l23.45,1,35.9-180s12.92,57,11,107.7S334,570.07,334,570.07L351.75,572l18.19-229.27-77.54-1.44S269.9,475.78,268,568.16Z" transform="translate(0.92 119.19)"/><path class="i" d="M179.47,180.08c-8.6-27,2.8-58-8.62-83.89a13.44,13.44,0,0,1-1.48-4.66c-.23-4.78,5.84-8,10.33-6.35s7.05,6.54,7.69,11.28-.23,9.55-.48,14.32c-.88,17,6.09,33.28,12,49.23,1,2.76,2,5.82,1,8.6-.77,2.13-2.6,3.69-4.41,5.06a75,75,0,0,1-15.2,8.87" transform="translate(0.92 119.19)"/><path class="h" d="M181.62,179.49c-4.2-13.31-3.53-27.41-3.19-41.18s.47-28-4.7-41a43.57,43.57,0,0,1-2-4.92,4.82,4.82,0,0,1-.14-1.65,3.32,3.32,0,0,1,.46-1.2A6.11,6.11,0,0,1,177.31,87c2.23.05,4.4,1.75,5.67,3.7a16.28,16.28,0,0,1,2.4,8.4c.13,4-.51,8-.7,11.94a61.73,61.73,0,0,0,.51,11.2,110.85,110.85,0,0,0,5.49,21.87c1.22,3.53,2.53,7,3.85,10.53q1,2.63,2,5.23a23.75,23.75,0,0,1,1.6,5.27c.45,3.49-2.07,5.5-4.64,7.36a74.46,74.46,0,0,1-9.35,5.82q-2.4,1.26-4.87,2.34a2.25,2.25,0,0,0-.8,3,2.28,2.28,0,0,0,3.05.8A76.85,76.85,0,0,0,191.74,179c3.13-2,6.65-4.14,8.92-7.13,2.58-3.39,2.16-7.5.84-11.32s-2.82-7.48-4.21-11.22a150.12,150.12,0,0,1-6.9-22.71,67.77,67.77,0,0,1-1.32-11.54c-.09-4.14.45-8.22.69-12.34.4-6.85-1-14.9-7.39-18.74-5.15-3.09-12.8-1-14.86,4.88-1.22,3.53.82,6.81,2.06,10a59.47,59.47,0,0,1,3,10.44A108.47,108.47,0,0,1,174.1,131c-.11,14.78-1.5,29.8,1.78,44.37q.6,2.69,1.44,5.31c.86,2.73,5.16,1.56,4.29-1.18Z" transform="translate(0.92 119.19)"/><path class="j" d="M317.3,213.19a27.31,27.31,0,0,1,1-17.42c4.81-11.83,17-18.61,28.36-24.48a313.48,313.48,0,0,1,.19,44.2,5.8,5.8,0,0,1-.77,3c-1,1.46-3,1.68-4.82,1.75q-14.39.58-28.8-.11l3.05-8.72" transform="translate(0.92 119.19)"/><path class="i" d="M317.07,158.83a156.66,156.66,0,0,0-19,31.44c-2,4.36-3.79,9.23-2.48,13.83,2,7.14,11.07,10.34,18.21,8.33s12.59-7.7,17.17-13.53,8.85-12.32,10.48-19.62.28-15.62-5-20.89-14.9-6.23-20.17-.91" transform="translate(0.92 119.19)"/><path class="h" d="M316.68,158.44a151.22,151.22,0,0,0-19.78,33c-2.14,5-3.73,11-.43,15.93,2.44,3.64,6.73,5.61,11,6.08,11.13,1.22,19.57-8.36,25.58-16.4,6.67-8.93,12.16-20.28,8.33-31.55a17.4,17.4,0,0,0-11.06-11.37c-5-1.56-10.69-.8-14.49,2.93-.51.5.28,1.29.79.79,3.37-3.31,8.37-4,12.82-2.82a15.86,15.86,0,0,1,10.2,9c4.56,10.13.22,21.22-5.66,29.76a67,67,0,0,1-10.4,12.27c-3.65,3.26-8.21,6-13.21,6.31a15.37,15.37,0,0,1-11.63-4c-4.07-4.07-3.39-9.86-1.5-14.82a119.4,119.4,0,0,1,8.94-17.75,157,157,0,0,1,11.3-16.6c.43-.56-.35-1.35-.79-.79Z" transform="translate(0.92 119.19)"/><path class="h" d="M330,139.42c-4.7,2.41-9.12,6-11,11s-.34,11.4,4.34,13.86c4.14,2.19,9.66.93,13.42,3.73,4.37,3.25,3.86,9.8,3.19,15.21-.37,3-.38,6.66,2.15,8.32a5.64,5.64,0,0,0,5.91-.27,15,15,0,0,0,4.23-4.54c2.83-4.15,5.41-8.67,6.08-13.66s-.95-10.54-5.08-13.41c-2.85-2-6.49-2.46-9.46-4.25-7-4.23-8.35-14.33-15-19.09" transform="translate(0.92 119.19)"/><path class="h" d="M328.86,137.49c-4.76,2.48-9.32,6.1-11.51,11.13-2,4.57-1.8,10.26,1.26,14.34a11.64,11.64,0,0,0,6.33,4.26c2.56.71,5.25.69,7.82,1.35a6.39,6.39,0,0,1,4.59,3.63,15,15,0,0,1,.8,6.61c-.22,4.79-2.08,11.09,2.6,14.43,2.47,1.76,5.91,1.42,8.4-.1,2.67-1.62,4.44-4.39,6.1-6.95,3.12-4.84,5.79-10.5,5.43-16.4-.35-5.53-3.08-10.77-8.23-13.2-2.79-1.31-6-1.9-8.5-3.81a18.71,18.71,0,0,1-4.43-5.42c-2.83-4.68-5.07-9.7-9.6-13a2.24,2.24,0,0,0-3.05.8,2.28,2.28,0,0,0,.8,3.05c3.3,2.42,5.12,6.41,7.09,9.86,2.2,3.87,4.8,7.71,8.89,9.76,2.33,1.17,4.91,1.74,7.21,3a9.51,9.51,0,0,1,4.4,4.83c1.84,4.37.9,9.29-1.08,13.43a48.91,48.91,0,0,1-4.27,7.13c-1.2,1.71-2.89,3.81-5.19,3.82-4.36,0-2.35-7.75-2.18-10.22.32-4.43-.06-9.57-3.51-12.8a12.39,12.39,0,0,0-6.55-3c-2.42-.42-5-.44-7.32-1.34-4.08-1.59-5.38-6.63-4.35-10.53,1.32-5,5.9-8.47,10.3-10.75,2.54-1.33.29-5.17-2.25-3.85Z" transform="translate(0.92 119.19)"/><path class="h" d="M294.08,339.49l-6.19,48-6.22,48.28-6.2,48.13-6.23,48.35c-1,7.89-2.13,15.77-3,23.66-.38,3.29-.5,6.75.78,9.87a10.29,10.29,0,0,0,6.32,5.9c5.49,1.81,11.86-.79,15.33-5.18,4.27-5.4,5.29-12.36,6.49-18.94l8.67-47.84,8.68-47.84,4.36-24c1.42-7.83,2.7-15.7,4.27-23.49.58-2.85,1.33-6,3.48-8.11a5.73,5.73,0,0,1,5.76-1.4c2.62,1.14,2,5.25,2,7.57l-.09,12.07-.34,48.74-.34,48.51-.34,48.75c0,3.48-.48,7.42.79,10.75a8.92,8.92,0,0,0,6.11,5.68c5.67,1.5,11.55-1.7,14.31-6.65,3.4-6.09,3.18-13.67,3.62-20.43l1.59-24.08,3.21-48.63,3.19-48.4c.27-4.06.94-8.14,1.43-12.18l1.45-11.95,2.94-24.13,2.91-23.9c.39-3.23.81-6.78-.95-9.71s-4.95-4-8.16-4.3c-3.63-.37-7.37-.16-11-.18l-12.3-.08-24.14-.17L292.52,342c-2.87,0-2.87,4.43,0,4.45l47.81.32,11.84.08c3.7,0,7.46-.16,11.14.15,2.6.22,4.85,1.19,5.28,4a16.26,16.26,0,0,1-.13,4.35c-.22,1.95-.47,3.91-.71,5.86L362,408.52c-1,7.88-2.12,15.77-2.64,23.7l-1.58,23.85-3.14,47.7q-1.58,23.73-3.13,47.47c-.4,6,0,13.48-4,18.43a8.74,8.74,0,0,1-5.67,3.1c-2,.23-4-.21-5.11-1.9a8.37,8.37,0,0,1-1.07-4.32c-.08-1.86,0-3.73,0-5.6l.08-11.84.17-23.9.33-47.82.34-47.82.17-23.9c0-3.45.59-7.5-.72-10.77a7.6,7.6,0,0,0-6.86-4.77c-6.74-.39-10.6,5.63-12,11.43-.86,3.52-1.38,7.13-2,10.69L313,424.15l-8.55,47.15-8.55,47.16L291.61,542c-.65,3.56-1.23,7.14-2,10.69a31,31,0,0,1-3,8.82,12,12,0,0,1-5.6,5.37,9.24,9.24,0,0,1-6.68.43c-5.87-2.17-3.78-10.89-3.18-15.51l6.08-47.2,6.12-47.44,6.11-47.4,6.1-47.34,3-23a2.24,2.24,0,0,0-2.23-2.22,2.28,2.28,0,0,0-2.22,2.22Z" transform="translate(0.92 119.19)"/><path class="k" d="M182.58,175.43l23.93-12S241.45,218,277.83,218c0,0,26.8,1.92,32.55,3.83s22,8.62,41.16,7.66,41.16,2.87,52.17,21.06,42.12,68.45,19.63,96.69-53.13,58.4-53.13,58.4l-9.1-11s30.64-30.63,30.64-40.21-5.75-65.57-8.62-54.08-18.67,83.28-12.44,110.56l-77.07-3.35s-7.18-118.7-25.84-135.93S204.11,241.49,182.58,175.43Z" transform="translate(0.92 119.19)"/><path d="M285.28,613.07l-56.6,1.34c7-10,14.74-20.53,26.31-24.23,4.28-1.36,8.8-1.67,13.27-2,5.17-.35,11.32-.25,14.24,4,3.95,5.77-1.23,14.7,3,20.3" transform="translate(0.92 119.19)"/><path d="M285.28,610.84l-56.6,1.34,1.92,3.35c6.11-8.73,13-18.64,23.37-22.63a36.53,36.53,0,0,1,9.67-2.11,74.32,74.32,0,0,1,8.69-.48,13.08,13.08,0,0,1,6.5,1.46,6.43,6.43,0,0,1,3,5.12c.54,5.59-1.85,11.75,1.74,16.75a2.29,2.29,0,0,0,3,.8,2.24,2.24,0,0,0,.8-3.05c-1.45-2-1.52-4.35-1.41-6.78a52.37,52.37,0,0,0,.26-8,11.15,11.15,0,0,0-3.53-7.48,14.25,14.25,0,0,0-7.85-3.08,44.17,44.17,0,0,0-8.68.1,54.19,54.19,0,0,0-11,1.67,37.64,37.64,0,0,0-15.45,9.37c-5,4.78-9,10.47-13,16.12a2.23,2.23,0,0,0,.84,3.05,2.28,2.28,0,0,0,1.08.3l56.61-1.34c2.86-.07,2.87-4.52,0-4.45Z" transform="translate(0.92 119.19)"/><path class="h" d="M178.73,177.23a137.55,137.55,0,0,0,28.43,54.87,143.62,143.62,0,0,0,22.44,21c8,6.1,16.34,11.67,24,18.12s14.51,13.68,19.08,22.61c5.05,9.87,7.23,20.94,8.85,31.81,1.82,12.21,3.31,24.47,4.94,36.71l2.53,19c.8,6,1.46,12.05,2.43,18,.77,4.73,2.35,9.58,6.43,12.47,4.48,3.15,10.45,2.76,15.65,2.8l38.47.25,9.37.06a2.26,2.26,0,0,0,2.22-2.23q1-25.63,4.24-51.12t8.75-50.42a43.35,43.35,0,0,1,1.38-5.75,2.34,2.34,0,0,1,2.62-1.85c3.17.44,4.21,4.35,4.91,6.93a87.79,87.79,0,0,1,2.95,20.13,93,93,0,0,1-7.71,40,90.78,90.78,0,0,1-10.43,17.94c-2,2.73-4.39,5.24-6.25,8.11-1.77,2.72-3.38,6-3.14,9.36a8.74,8.74,0,0,0,1.7,4.66,2.26,2.26,0,0,0,3.11.75,2.88,2.88,0,0,0,.39-.3l31.35-33.31c4.85-5.16,9.81-10.23,14.47-15.55,4.33-4.94,8.41-10.24,11.19-16.22,5.72-12.28,5.9-26.31,2.91-39.34-3.12-13.55-9.68-26-16.52-38-6.06-10.61-12-22.3-21.79-30-11-8.68-25.29-9.3-38.64-11l-45.17-5.64c-13.61-1.7-27.31-3.25-40.63-6.69-12.48-3.23-24.36-8.33-34.64-16.2a86.72,86.72,0,0,1-22.74-26.26q-2.16-3.85-3.93-7.91c-.63-1.44-2.52-1.24-3.5-.45l-17.3,14.06a2.25,2.25,0,0,0,0,3.15,2.28,2.28,0,0,0,3.15,0l17.3-14.06-3.5-.45a91.39,91.39,0,0,0,50.94,48.28c12.72,4.9,26.24,7.23,39.69,9.05,14.5,2,29.05,3.67,43.57,5.48l22.1,2.76c6.71.84,13.54,1.51,20,3.65,11.75,3.88,19.06,13.8,25.17,24,6.91,11.54,13.92,23.35,18.65,36,4.56,12.16,6.94,25.6,4,38.44a48.26,48.26,0,0,1-7.94,17.32c-3.82,5.37-8.42,10.14-12.93,14.93l-30.84,32.77L363,408l3.5.45c-1.93-2.55-.92-5.47.52-8,1.75-3.1,4.18-5.71,6.34-8.52a91.19,91.19,0,0,0,11-18.49,98.05,98.05,0,0,0,8.57-42.16,92.58,92.58,0,0,0-3-21.33c-.94-3.6-2.24-7.57-5.62-9.59s-7.47-1.48-9.63,1.76a14.8,14.8,0,0,0-1.77,5.11c-.49,2.2-1,4.39-1.44,6.59q-1.38,6.48-2.6,13-2.49,13.14-4.36,26.38-3.72,26.31-5.07,52.86-.17,3.36-.3,6.74l2.22-2.23-38-.25-9.37-.07a79.33,79.33,0,0,1-8.16-.22,10.7,10.7,0,0,1-6.26-2.43,11.78,11.78,0,0,1-3.06-5.58,49.9,49.9,0,0,1-1.25-7l-1.24-9.26-2.46-18.51q-2.48-18.6-5-37.2c-1.48-10.93-3.2-22-7.31-32.27a70.06,70.06,0,0,0-17.13-24.85c-7.23-6.9-15.44-12.67-23.49-18.54A170.92,170.92,0,0,1,215.78,235a132.46,132.46,0,0,1-30.68-51.68c-.77-2.41-1.45-4.84-2.07-7.29-.71-2.77-5-1.6-4.3,1.19Z" transform="translate(0.92 119.19)"/><path d="M330.24,586.79a299.08,299.08,0,0,0-23.88,26.44q17,1.15,34.1,1.55c1.65,0,3.5,0,4.61-1.24a5.79,5.79,0,0,0,1.14-3L349,595c.38-2.06.66-4.44-.72-6-2.94-3.37-9.4.81-12.71-2.2" transform="translate(0.92 119.19)"/><path d="M328.67,585.21a301.93,301.93,0,0,0-23.88,26.44,2.26,2.26,0,0,0,1.57,3.8q9.51.64,19,1.06,4.65.19,9.3.34c2.84.08,5.89.47,8.7-.05s4.38-2.65,4.9-5.34c.62-3.12,1.13-6.26,1.7-9.39.52-2.9,1.2-5.81,1.49-8.74.25-2.59-.42-5.21-2.62-6.78-1.89-1.35-4.32-1.27-6.52-1a27.8,27.8,0,0,1-3.28.22,3.68,3.68,0,0,1-1.05-.12,2.36,2.36,0,0,1-.87-.39,2.23,2.23,0,0,0-3.15,3.15c3.24,2.76,7,1.35,10.77,1.46a3,3,0,0,1,1.56.38,2.38,2.38,0,0,1,.76,1.77c.13,2.36-.66,4.88-1.08,7.19l-1.51,8.42a32.79,32.79,0,0,1-.7,3.66,1.61,1.61,0,0,1-1.58,1.27,19.79,19.79,0,0,1-3.08,0l-4.65-.13c-2.89-.09-5.77-.19-8.64-.32q-9.75-.4-19.48-1.07l1.57,3.8a303.53,303.53,0,0,1,23.88-26.44c2.05-2-1.1-5.16-3.15-3.15Z" transform="translate(0.92 119.19)"/><path class="i" d="M337.78,190c3.23-.16,4.05,4.65,2.87,7.66s-5.82,2.31-8.08,0" transform="translate(0.92 119.19)"/><path class="h" d="M337.78,191.07h.43c-.26,0,0,0,.15,0s.37.18.13,0l.34.19.07,0,.07.06.24.25c.05.05.15.21,0,0l.1.13c.08.13.16.26.23.39s.18.42.08.17c.05.12.09.25.14.37a6.77,6.77,0,0,1,.21.89c0,.08,0,.16,0,.24s0-.23,0,0l0,.43a7.85,7.85,0,0,1,0,1c0,.14,0,.29,0,.43,0,.31,0-.15,0,0a2,2,0,0,1,0,.24,6.34,6.34,0,0,1-.21.86c0,.13-.08.26-.13.39s.07-.13,0,0l-.1.2a2.9,2.9,0,0,1-.19.29c.14-.2,0,0,0,0l-.21.21-.12.11c.18-.16.07-.06,0,0s-.23.15-.35.21l-.16.07c.24-.1.06,0,0,0s-.3.09-.46.12-.38.05-.13,0l-.45,0H337l-.23,0c-.06,0-.34-.05-.08,0a8.24,8.24,0,0,1-1-.24l-.51-.17s-.2-.09,0,0l-.26-.13a7.06,7.06,0,0,1-.93-.54l-.16-.12-.08-.06q-.21-.18-.42-.39a1.11,1.11,0,0,0-1.57,1.58,8,8,0,0,0,4.05,2.16,5.67,5.67,0,0,0,4.35-.64,5.55,5.55,0,0,0,2-4.13,8.37,8.37,0,0,0-.62-4.42,4,4,0,0,0-3.81-2.53,1.12,1.12,0,1,0,0,2.23Z" transform="translate(0.92 119.19)"/></svg>